<?xml version="1.0" standalone="no"?>
<!DOCTYPE svg PUBLIC "-//W3C//DTD SVG 20010904//EN"
 "http://www.w3.org/TR/2001/REC-SVG-20010904/DTD/svg10.dtd">
<svg version="1.0" xmlns="http://www.w3.org/2000/svg"
 width="50.000000pt" height="50.000000pt" viewBox="0 0 50.000000 50.000000"
 preserveAspectRatio="xMidYMid meet">

<g transform="translate(0.000000,50.000000) scale(0.100000,-0.100000)"
fill="#000000" stroke="none">
<path d="M80 250 l0 -220 45 0 45 0 0 70 0 70 63 0 c121 0 193 64 184 163 -5
57 -30 95 -78 119 -26 14 -59 18 -146 18 l-113 0 0 -220z m225 125 c33 -32 33
-78 0 -110 -20 -21 -34 -25 -80 -25 l-55 0 0 80 0 80 55 0 c46 0 60 -4 80 -25z"/>
</g>
</svg>
